# xmcd
#
# Track frame offsets:
#	150
#	19667
#	45340
#	75405
#	97020
#	116341
#	137545
#	154664
#	173204
#	195092
#	215770
#	236595
#
# Disc length: 3436 seconds
#
# Revision: 0
# Processed by: cddbd v1.5.2PL0 Copyright (c) Steve Scherf et al.
# Submitted via: EZCDAudioConverter 2.2.0.1
#
DISCID=8b0d6a0c
DTITLE=Compay Segundo - Con Pasion
DYEAR=2014
DGENRE=Latino
TTITLE0=Cae la Nieve (feat. Salvatore Adamo)
TTITLE1=Hasta Siempre Comandante (feat. Cali)
TTITLE2=Para Hacer un Son
TTITLE3=Hojas Muertas (feat. Basilio Repilado)
TTITLE4=El Penquito e Coleto
TTITLE5=Ahora me da Pena
TTITLE6=Toda una Vida
TTITLE7=Saradonga
TTITLE8=Hey Caramba
TTITLE9=Siboney
TTITLE10=Yo Domino
TTITLE11=Chan Chan (feat. Pantelis Thalassinos)
EXTD=
EXTT0=
EXTT1=
EXTT2=
EXTT3=
EXTT4=
EXTT5=
EXTT6=
EXTT7=
EXTT8=
EXTT9=
EXTT10=
EXTT11=
PLAYORDER=
